<svg xmlns="http://www.w3.org/2000/svg" fill="none" viewBox="0 0 32 32"><path fill="#B61386" d="M0 16c0 8.837 7.163 16 16 16s16-7.163 16-16S24.837 0 16 0 0 7.163 0 16z"/><path fill="#fff" d="M6.76 13.51V23a2.07 2.07 0 0 0 2.06 2.06h14.8A2.06 2.06 0 0 0 25.68 23v-8.5a1 1 0 0 0-1-1H6.77l-.01.01zm11.63 6.19-2.75 2.18a.56.56 0 0 1-1-.4v-4.36a.56.56 0 0 1 1-.4l2.75 2.18a.57.57 0 0 1 0 .8zm6.96-9.83-.28-2.08a1 1 0 0 0-1.17-.88h-.32l-1 3.33-3 .41 1-3.33-1.15.16-1.69.24-1 3.33-3 .42 1-3.33-1.18.16-1.66.23-1 3.33-3 .42 1-3.33-1.72.24a1 1 0 0 0-.88 1.16l.3 2.1.13 1L24.47 11a.998.998 0 0 0 .88-1.13z"/></svg>